<?xml version="1.0" encoding="UTF-8" standalone="no"?>
<!DOCTYPE svg PUBLIC "-//W3C//DTD SVG 1.1//EN" "http://www.w3.org/Graphics/SVG/1.1/DTD/svg11.dtd">
<svg version="1.1" xmlns="http://www.w3.org/2000/svg" xmlns:xlink="http://www.w3.org/1999/xlink" preserveAspectRatio="xMidYMid meet" viewBox="0 0 1880 290" width="1880" height="290"><defs><path d="M170.94 123.92L1870.94 123.92L1870.94 293.92L170.94 293.92L170.94 123.92Z" id="au62lossy"></path><path d="M170.94 123.9L1870.94 123.9L1870.94 293.87L170.94 293.87L170.94 123.9Z" id="bdt05sXBK"></path><path d="M224.75 195.29L224.75 231.74L215.28 231.74L215.28 182.14L228.42 182.14L242.05 208.78L255.61 182.14L268.82 182.14L268.82 231.74L259.06 231.74L259.06 195.36L241.91 228.21L224.75 195.29ZM277.96 188.85C276.37 187.19 276.53 185.3 276.37 184.91C276.37 182.63 277.8 181.42 277.96 181.04C279.62 179.38 281.51 179.54 281.9 179.38C284.19 179.38 285.39 180.87 285.78 181.04C287.44 182.63 287.27 184.52 287.44 184.91C287.44 187.19 285.94 188.46 285.78 188.85C284.72 189.91 283.42 190.44 281.9 190.44C279.54 189.49 278.22 188.96 277.96 188.85ZM286.81 231.74L277.06 231.74L277.06 194.8L286.81 194.8L286.81 231.74ZM304.03 230.5C300.57 228.97 298.67 226.82 298.08 226.41C295.59 223.86 294.53 221.06 294.14 220.47C292.68 217.01 292.83 213.8 292.68 213.06C292.68 209.12 293.99 206.46 294.14 205.73C295.66 202.27 297.75 200.32 298.15 199.71C300.71 197.15 303.57 196.1 304.17 195.7C307.69 194.25 310.89 194.39 311.64 194.25C314.4 194.25 316.37 195 316.89 195.08C318.6 195.59 320.19 196.3 321.67 197.22L321.67 194.8L331.21 194.8C331.21 216.97 331.21 229.28 331.21 231.74C331.21 239 326.98 241.83 326.51 242.95C321.81 246.96 314.31 246.56 312.95 246.96C308.66 246.96 305.54 246.21 304.72 246.13C302.09 245.58 299.69 244.75 297.53 243.64C299.6 239.07 300.75 236.54 300.98 236.03C304.03 237.55 306.34 238.02 306.93 238.24C309.84 239 312.16 238.93 312.74 239C317.03 239 318.6 237.32 319.25 237.14C320.72 235.89 321.46 234.07 321.46 231.67C321.46 229.85 321.46 228.83 321.46 228.63C319.32 230.22 317.16 230.87 316.69 231.12C314.98 231.67 313.21 231.95 311.36 231.95C306.96 231.08 304.52 230.59 304.03 230.5ZM305.27 220.6C308.39 223.72 312.12 223.41 312.88 223.72C315.44 223.72 317.18 222.97 317.66 222.89C319.13 222.29 320.4 221.46 321.46 220.4C321.46 211.68 321.46 206.84 321.46 205.87C319.94 204.35 318.04 203.69 317.66 203.45C315.37 202.55 313.42 202.64 312.95 202.55C308.46 202.55 306.1 205.29 305.34 205.59C303.27 207.62 302.23 210.11 302.23 213.06C304.06 217.59 305.07 220.1 305.27 220.6ZM338.83 194.8L348.58 194.8C348.58 197.25 348.58 198.61 348.58 198.88C350.31 196.46 352.38 195.58 352.8 195.22C355.36 193.97 357.84 194.1 358.4 193.97C359.79 194.04 360.52 194.22 360.76 194.25C361.4 194.34 361.95 194.53 362.42 194.8C362.42 199.91 362.42 202.74 362.42 203.31C361.38 202.83 360.3 202.69 360.06 202.62C358.82 202.34 357.76 202.37 357.5 202.34C354.67 202.34 352.77 203.65 352.25 203.79C350.68 204.72 349.46 206.08 348.58 207.88L348.58 231.74L338.83 231.74L338.83 194.8ZM368.6 229.25C364.87 226.07 365.24 221.84 364.87 221.02C364.87 215.83 368.48 213.67 368.88 212.86C372.89 209.88 378.9 210.18 380.01 209.88C382.3 209.88 384.06 210.19 384.51 210.23C386.03 210.46 387.53 210.8 389.01 211.27C389.01 209.69 389.01 208.81 389.01 208.64C389.01 205.45 387.2 204.34 387 203.86C385.06 202.2 381.77 202.37 381.19 202.2C378.84 202.2 376.65 202.89 376.14 202.96C374.34 203.43 372.27 204.19 369.91 205.25C367.8 200.97 366.62 198.6 366.39 198.12C370.74 196.12 373.92 195.45 374.76 195.15C378.84 194.11 382.04 194.21 382.85 194.11C390.25 194.11 393.25 197.35 394.4 197.71C397.17 200.11 398.55 203.47 398.55 207.81L398.55 231.74L389.01 231.74C389.01 230.21 389.01 229.35 389.01 229.18C386.65 230.84 384.52 231.36 384.03 231.6C382.32 232.11 380.41 232.36 378.28 232.36C372.47 230.5 369.25 229.46 368.6 229.25ZM375.93 224.2C377.8 225.45 380.35 225.32 380.84 225.45C383.27 225.45 384.83 224.89 385.27 224.82C386.61 224.41 387.85 223.83 389.01 223.09C389.01 219.77 389.01 217.93 389.01 217.56C387.21 216.87 385.64 216.69 385.27 216.59C383.33 216.25 381.6 216.28 381.19 216.25C377.87 216.25 376.52 217.37 376 217.49C374.76 218.32 374.13 219.43 374.13 220.81C375.21 222.85 375.81 223.97 375.93 224.2ZM409.54 202.96L401.93 202.96L401.93 194.8L409.54 194.8L409.54 185.39L419.22 183.25L419.22 194.8L429.74 194.8L429.74 202.96L419.22 202.96C419.22 212.8 419.22 218.27 419.22 219.36C419.22 221.99 420.22 222.66 420.33 223.03C421.51 224.06 423.94 223.96 424.34 224.06C425.66 224.06 426.58 223.94 426.83 223.92C427.66 223.79 428.56 223.56 429.53 223.23C429.53 228.01 429.53 230.66 429.53 231.19C427.94 231.67 426.11 231.87 425.73 231.95C423.58 232.29 422.36 232.26 421.99 232.29C415.83 232.29 413.59 229.8 412.65 229.53C410.58 227.64 409.54 224.89 409.54 221.3L409.54 202.96ZM435.42 188.85C433.83 187.19 433.99 185.3 433.83 184.91C433.83 182.63 435.26 181.42 435.42 181.04C437.08 179.38 438.97 179.54 439.37 179.38C441.65 179.38 442.85 180.87 443.24 181.04C444.9 182.63 444.73 184.52 444.9 184.91C444.9 187.19 443.41 188.46 443.24 188.85C442.18 189.91 440.89 190.44 439.37 190.44C437 189.49 435.69 188.96 435.42 188.85ZM444.28 231.74L434.52 231.74L434.52 194.8L444.28 194.8L444.28 231.74ZM451.67 205.8C453.19 202.27 455.4 200.32 455.82 199.71C458.52 197.08 461.48 196.04 462.11 195.63C465.71 194.11 469.02 194.26 469.79 194.11C473.94 194.11 476.76 195.48 477.54 195.63C481.14 197.08 483.14 199.31 483.77 199.71C486.46 202.27 487.56 205.19 487.98 205.8C489.51 209.26 489.35 212.59 489.51 213.34C489.51 217.35 488.14 220.13 487.98 220.88C486.46 224.41 484.19 226.36 483.77 226.97C481.14 229.46 478.16 230.58 477.54 230.98C473.94 232.43 470.57 232.29 469.79 232.43C465.71 232.43 462.88 231.13 462.11 230.98C458.52 229.46 456.45 227.37 455.82 226.97C453.19 224.41 452.08 221.49 451.67 220.88C450.65 218.53 450.15 216.02 450.15 213.34C451.06 208.82 451.57 206.3 451.67 205.8ZM477.06 220.88C480.03 217.77 479.73 214.09 480.03 213.34C480.03 208.78 477.35 206.43 477.06 205.66C474.08 202.55 470.52 202.86 469.79 202.55C465.57 202.55 463.32 205.35 462.6 205.66C459.62 208.78 459.92 212.57 459.62 213.34C459.62 217.77 462.3 220.13 462.6 220.88C464.58 222.96 466.98 223.99 469.79 223.99C474.15 222.13 476.57 221.09 477.06 220.88ZM495.44 194.8L505.19 194.8C505.19 196.55 505.19 197.51 505.19 197.71C507.27 195.98 509.36 195.34 509.83 195.08C512.46 194.11 514.93 194.21 515.5 194.11C521.86 194.11 524.9 197.85 525.95 198.26C528.71 200.98 530.1 204.49 530.1 208.78L530.1 231.74L520.41 231.74C520.41 218.83 520.41 211.66 520.41 210.23C520.41 206.77 518.48 205.19 518.27 204.62C516.19 202.48 513.29 202.69 512.73 202.48C510.31 202.48 508.81 203.35 508.38 203.45C507.08 204.09 506.02 204.99 505.19 206.15L505.19 231.74L495.44 231.74L495.44 194.8ZM549.12 182.14L592.77 182.14L592.77 191.21L576.17 191.21L576.17 231.74L565.86 231.74L565.86 191.21L549.12 191.21L549.12 182.14ZM588.73 205.8C590.25 202.27 592.47 200.32 592.88 199.71C595.58 197.08 598.55 196.04 599.18 195.63C602.77 194.11 606.09 194.26 606.85 194.11C611.01 194.11 613.83 195.48 614.6 195.63C618.2 197.08 620.21 199.31 620.83 199.71C623.53 202.27 624.63 205.19 625.05 205.8C626.57 209.26 626.42 212.59 626.57 213.34C626.57 217.35 625.2 220.13 625.05 220.88C623.53 224.41 621.25 226.36 620.83 226.97C618.2 229.46 615.22 230.58 614.6 230.98C611.01 232.43 607.63 232.29 606.85 232.43C602.77 232.43 599.94 231.13 599.18 230.98C595.58 229.46 593.51 227.37 592.88 226.97C590.25 224.41 589.15 221.49 588.73 220.88C587.72 218.53 587.21 216.02 587.21 213.34C588.12 208.82 588.63 206.3 588.73 205.8ZM614.12 220.88C617.09 217.77 616.8 214.09 617.09 213.34C617.09 208.78 614.42 206.43 614.12 205.66C611.14 202.55 607.58 202.86 606.85 202.55C602.64 202.55 600.38 205.35 599.66 205.66C596.69 208.78 596.98 212.57 596.69 213.34C596.69 217.77 599.36 220.13 599.66 220.88C601.64 222.96 604.04 223.99 606.85 223.99C611.21 222.13 613.63 221.09 614.12 220.88ZM632.65 205.8C634.17 202.27 636.38 200.32 636.8 199.71C639.5 197.08 642.46 196.04 643.09 195.63C646.69 194.11 650 194.26 650.77 194.11C654.92 194.11 657.74 195.48 658.52 195.63C662.12 197.08 664.12 199.31 664.74 199.71C667.44 202.27 668.54 205.19 668.96 205.8C670.49 209.26 670.33 212.59 670.49 213.34C670.49 217.35 669.12 220.13 668.96 220.88C667.44 224.41 665.17 226.36 664.74 226.97C662.12 229.46 659.14 230.58 658.52 230.98C654.92 232.43 651.55 232.29 650.77 232.43C646.69 232.43 643.86 231.13 643.09 230.98C639.5 229.46 637.43 227.37 636.8 226.97C634.17 224.41 633.06 221.49 632.65 220.88C631.63 218.53 631.13 216.02 631.13 213.34C632.04 208.82 632.55 206.3 632.65 205.8ZM658.03 220.88C661.01 217.77 660.71 214.09 661.01 213.34C661.01 208.78 658.33 206.43 658.03 205.66C655.06 202.55 651.5 202.86 650.77 202.55C646.55 202.55 644.3 205.35 643.58 205.66C640.6 208.78 640.9 212.57 640.6 213.34C640.6 217.77 643.28 220.13 643.58 220.88C645.56 222.96 647.96 223.99 650.77 223.99C655.13 222.13 657.55 221.09 658.03 220.88ZM686.17 231.74L676.42 231.74L676.42 182.14L686.17 180L686.17 231.74ZM693.7 182.14L703.46 180L703.46 210.44L719.37 194.8L730.37 194.8L713.07 211.75L731.4 231.74L719.02 231.74L703.46 214.86L703.46 231.74L693.7 231.74L693.7 182.14ZM734.84 188.85C733.24 187.19 733.4 185.3 733.24 184.91C733.24 182.63 734.68 181.42 734.84 181.04C736.5 179.38 738.38 179.54 738.78 179.38C741.06 179.38 742.27 180.87 742.65 181.04C744.31 182.63 744.15 184.52 744.31 184.91C744.31 187.19 742.82 188.46 742.65 188.85C741.59 189.91 740.3 190.44 738.78 190.44C736.41 189.49 735.1 188.96 734.84 188.85ZM743.69 231.74L733.94 231.74L733.94 194.8L743.69 194.8L743.69 231.74ZM756.27 202.96L748.66 202.96L748.66 194.8L756.27 194.8L756.27 185.39L765.95 183.25L765.95 194.8L776.47 194.8L776.47 202.96L765.95 202.96C765.95 212.8 765.95 218.27 765.95 219.36C765.95 221.99 766.95 222.66 767.06 223.03C768.24 224.06 770.67 223.96 771.07 224.06C772.39 224.06 773.31 223.94 773.56 223.92C774.39 223.79 775.29 223.56 776.26 223.23C776.26 228.01 776.26 230.66 776.26 231.19C774.67 231.67 772.84 231.87 772.46 231.95C770.31 232.29 769.09 232.26 768.72 232.29C762.56 232.29 760.32 229.8 759.38 229.53C757.31 227.64 756.27 224.89 756.27 221.3L756.27 202.96ZM801.16 194.8C801.16 192.69 801.16 191.51 801.16 191.27C801.16 185.12 804.4 182.75 804.76 181.8C808.43 178.48 814.16 178.81 815.21 178.48C816.66 178.48 817.94 178.66 818.25 178.68C819.31 178.78 820.21 178.92 820.95 179.1C820.95 184 820.95 186.72 820.95 187.26C819.56 186.99 818.77 186.89 818.53 186.85C817.56 186.71 816.6 186.72 816.38 186.71C813.61 186.71 812.65 187.83 812.23 187.95C811.35 188.74 810.92 189.91 810.92 191.48L810.92 194.8L820.95 194.8L820.95 202.96L810.92 202.96L810.92 231.74L801.16 231.74L801.16 202.96L792.93 202.96L792.93 194.8L801.16 194.8ZM824.82 205.8C826.34 202.27 828.55 200.32 828.97 199.71C831.67 197.08 834.63 196.04 835.26 195.63C838.86 194.11 842.17 194.26 842.94 194.11C847.09 194.11 849.92 195.48 850.69 195.63C854.29 197.08 856.29 199.31 856.92 199.71C859.61 202.27 860.71 205.19 861.14 205.8C862.66 209.26 862.5 212.59 862.66 213.34C862.66 217.35 861.29 220.13 861.14 220.88C859.61 224.41 857.34 226.36 856.92 226.97C854.29 229.46 851.31 230.58 850.69 230.98C847.09 232.43 843.72 232.29 842.94 232.43C838.86 232.43 836.03 231.13 835.26 230.98C831.67 229.46 829.6 227.37 828.97 226.97C826.34 224.41 825.23 221.49 824.82 220.88C823.8 218.53 823.3 216.02 823.3 213.34C824.21 208.82 824.72 206.3 824.82 205.8ZM850.21 220.88C853.18 217.77 852.88 214.09 853.18 213.34C853.18 208.78 850.5 206.43 850.21 205.66C847.23 202.55 843.67 202.86 842.94 202.55C838.72 202.55 836.47 205.35 835.75 205.66C832.77 208.78 833.07 212.57 832.77 213.34C832.77 217.77 835.45 220.13 835.75 220.88C837.73 222.96 840.13 223.99 842.94 223.99C847.3 222.13 849.72 221.09 850.21 220.88ZM868.59 194.8L878.34 194.8C878.34 197.25 878.34 198.61 878.34 198.88C880.07 196.46 882.14 195.58 882.56 195.22C885.12 193.97 887.61 194.1 888.17 193.97C889.55 194.04 890.28 194.22 890.52 194.25C891.16 194.34 891.72 194.53 892.18 194.8C892.18 199.91 892.18 202.74 892.18 203.31C891.14 202.83 890.06 202.69 889.83 202.62C888.58 202.34 887.52 202.37 887.27 202.34C884.43 202.34 882.54 203.65 882.01 203.79C880.44 204.72 879.22 206.08 878.34 207.88L878.34 231.74L868.59 231.74L868.59 194.8ZM927.98 182.14L939.88 182.14L960.01 231.74L948.87 231.74L943.82 218.74L923.35 218.74L918.3 231.74L907.58 231.74L927.98 182.14ZM940.71 210.5L933.72 192.24L926.53 210.5L940.71 210.5ZM963.51 194.8L973.12 194.8C973.12 196.67 973.12 197.71 973.12 197.91C975.27 196.12 977.48 195.49 977.97 195.22C980.66 194.32 983.01 194.41 983.57 194.32C987.44 194.32 990.17 195.69 990.9 195.84C994.36 197.29 996.25 199.45 996.85 199.85C999.41 202.41 1000.46 205.27 1000.86 205.87C1002.31 209.33 1002.17 212.59 1002.31 213.34C1002.31 217.28 1000.94 220 1000.79 220.74C999.34 224.2 997.18 226.16 996.78 226.76C994.29 229.32 991.36 230.37 990.76 230.77C987.23 232.23 984.04 232.08 983.29 232.23C980.59 232.23 978.5 231.6 977.97 231.53C976.26 231.03 974.69 230.29 973.26 229.32L973.26 246.54L963.51 246.54L963.51 194.8ZM977.14 203.52C975.61 204.12 974.32 204.97 973.26 206.08C973.26 214.79 973.26 219.64 973.26 220.6C974.78 222.19 976.69 222.85 977.07 223.09C979.42 223.99 981.55 223.9 982.05 223.99C986.54 223.99 988.89 221.25 989.66 220.95C992.77 217.84 992.46 214.1 992.77 213.34C992.77 208.78 989.9 206.49 989.59 205.73C987.51 203.66 985 202.62 982.05 202.62C979.1 203.16 977.46 203.46 977.14 203.52ZM1008.27 194.8L1017.89 194.8C1017.89 196.67 1017.89 197.71 1017.89 197.91C1020.03 196.12 1022.25 195.49 1022.73 195.22C1025.43 194.32 1027.77 194.41 1028.33 194.32C1032.21 194.32 1034.93 195.69 1035.67 195.84C1039.13 197.29 1041.02 199.45 1041.62 199.85C1044.18 202.41 1045.23 205.27 1045.63 205.87C1047.08 209.33 1046.94 212.59 1047.08 213.34C1047.08 217.28 1045.71 220 1045.56 220.74C1044.11 224.2 1041.95 226.16 1041.55 226.76C1039.06 229.32 1036.13 230.37 1035.53 230.77C1032 232.23 1028.81 232.08 1028.06 232.23C1025.36 232.23 1023.26 231.6 1022.73 231.53C1021.03 231.03 1019.46 230.29 1018.03 229.32L1018.03 246.54L1008.27 246.54L1008.27 194.8ZM1021.9 203.52C1020.38 204.12 1019.09 204.97 1018.03 206.08C1018.03 214.79 1018.03 219.64 1018.03 220.6C1019.55 222.19 1021.45 222.85 1021.83 223.09C1024.18 223.99 1026.31 223.9 1026.81 223.99C1031.31 223.99 1033.66 221.25 1034.42 220.95C1037.53 217.84 1037.22 214.1 1037.53 213.34C1037.53 208.78 1034.67 206.49 1034.35 205.73C1032.28 203.66 1029.76 202.62 1026.81 202.62C1023.87 203.16 1022.23 203.46 1021.9 203.52ZM1062.79 231.74L1053.04 231.74L1053.04 182.14L1062.79 180L1062.79 231.74ZM1071.22 188.85C1069.63 187.19 1069.79 185.3 1069.63 184.91C1069.63 182.63 1071.06 181.42 1071.22 181.04C1072.88 179.38 1074.77 179.54 1075.17 179.38C1077.45 179.38 1078.65 180.87 1079.04 181.04C1080.7 182.63 1080.53 184.52 1080.7 184.91C1080.7 187.19 1079.21 188.46 1079.04 188.85C1077.98 189.91 1076.69 190.44 1075.17 190.44C1072.8 189.49 1071.49 188.96 1071.22 188.85ZM1080.08 231.74L1070.32 231.74L1070.32 194.8L1080.08 194.8L1080.08 231.74ZM1110.3 222.96C1111.77 222.31 1113.16 221.27 1114.45 219.84C1117.93 223.45 1119.87 225.46 1120.26 225.86C1117.42 228.97 1114.16 230.22 1113.48 230.7C1109.54 232.43 1106.07 232.26 1105.25 232.43C1101.24 232.43 1098.4 231.13 1097.64 230.98C1094.04 229.46 1092.1 227.37 1091.48 226.97C1088.92 224.41 1087.81 221.49 1087.4 220.88C1085.95 217.35 1086.09 214.09 1085.95 213.34C1085.95 209.26 1087.26 206.55 1087.4 205.8C1088.92 202.27 1091.07 200.32 1091.48 199.71C1094.04 197.08 1097.02 196.04 1097.64 195.63C1101.24 194.11 1104.49 194.26 1105.25 194.11C1109.67 194.11 1112.84 195.67 1113.69 195.84C1116.36 196.99 1118.64 198.61 1120.53 200.68C1116.97 204.5 1114.98 206.62 1114.59 207.05C1112.65 204.83 1110.79 204.06 1110.37 203.73C1108.08 202.55 1105.95 202.67 1105.45 202.55C1101.3 202.55 1099.1 205.35 1098.4 205.66C1095.56 208.78 1095.85 212.57 1095.56 213.34C1095.56 217.84 1098.18 220.13 1098.47 220.88C1100.45 222.91 1102.85 223.92 1105.66 223.92C1108.44 223.34 1109.99 223.02 1110.3 222.96ZM1127.3 229.25C1123.56 226.07 1123.94 221.84 1123.56 221.02C1123.56 215.83 1127.17 213.67 1127.57 212.86C1131.59 209.88 1137.6 210.18 1138.71 209.88C1140.99 209.88 1142.76 210.19 1143.21 210.23C1144.73 210.46 1146.23 210.8 1147.7 211.27C1147.7 209.69 1147.7 208.81 1147.7 208.64C1147.7 205.45 1145.9 204.34 1145.7 203.86C1143.76 202.2 1140.47 202.37 1139.89 202.2C1137.54 202.2 1135.34 202.89 1134.84 202.96C1133.04 203.43 1130.96 204.19 1128.61 205.25C1126.5 200.97 1125.32 198.6 1125.08 198.12C1129.44 196.12 1132.62 195.45 1133.45 195.15C1137.54 194.11 1140.74 194.21 1141.55 194.11C1148.95 194.11 1151.94 197.35 1153.1 197.71C1155.87 200.11 1157.25 203.47 1157.25 207.81L1157.25 231.74L1147.7 231.74C1147.7 230.21 1147.7 229.35 1147.7 229.18C1145.35 230.84 1143.22 231.36 1142.72 231.6C1141.02 232.11 1139.1 232.36 1136.98 232.36C1131.17 230.5 1127.94 229.46 1127.3 229.25ZM1134.63 224.2C1136.5 225.45 1139.05 225.32 1139.54 225.45C1141.96 225.45 1143.53 224.89 1143.97 224.82C1145.31 224.41 1146.55 223.83 1147.7 223.09C1147.7 219.77 1147.7 217.93 1147.7 217.56C1145.91 216.87 1144.34 216.69 1143.97 216.59C1142.03 216.25 1140.3 216.28 1139.89 216.25C1136.57 216.25 1135.22 217.37 1134.7 217.49C1133.45 218.32 1132.83 219.43 1132.83 220.81C1133.91 222.85 1134.51 223.97 1134.63 224.2ZM1168.24 202.96L1160.63 202.96L1160.63 194.8L1168.24 194.8L1168.24 185.39L1177.92 183.25L1177.92 194.8L1188.44 194.8L1188.44 202.96L1177.92 202.96C1177.92 212.8 1177.92 218.27 1177.92 219.36C1177.92 221.99 1178.92 222.66 1179.03 223.03C1180.2 224.06 1182.64 223.96 1183.04 224.06C1184.35 224.06 1185.28 223.94 1185.53 223.92C1186.36 223.79 1187.26 223.56 1188.23 223.23C1188.23 228.01 1188.23 230.66 1188.23 231.19C1186.64 231.67 1184.8 231.87 1184.42 231.95C1182.28 232.29 1181.06 232.26 1180.69 232.29C1174.53 232.29 1172.28 229.8 1171.35 229.53C1169.27 227.64 1168.24 224.89 1168.24 221.3L1168.24 202.96ZM1194.12 188.85C1192.53 187.19 1192.69 185.3 1192.53 184.91C1192.53 182.63 1193.96 181.42 1194.12 181.04C1195.78 179.38 1197.67 179.54 1198.06 179.38C1200.35 179.38 1201.55 180.87 1201.94 181.04C1203.6 182.63 1203.43 184.52 1203.6 184.91C1203.6 187.19 1202.1 188.46 1201.94 188.85C1200.88 189.91 1199.58 190.44 1198.06 190.44C1195.7 189.49 1194.38 188.96 1194.12 188.85ZM1202.97 231.74L1193.22 231.74L1193.22 194.8L1202.97 194.8L1202.97 231.74ZM1210.37 205.8C1211.89 202.27 1214.1 200.32 1214.52 199.71C1217.21 197.08 1220.18 196.04 1220.81 195.63C1224.41 194.11 1227.72 194.26 1228.49 194.11C1232.64 194.11 1235.46 195.48 1236.24 195.63C1239.83 197.08 1241.84 199.31 1242.46 199.71C1245.16 202.27 1246.26 205.19 1246.68 205.8C1248.2 209.26 1248.05 212.59 1248.2 213.34C1248.2 217.35 1246.83 220.13 1246.68 220.88C1245.16 224.41 1242.88 226.36 1242.46 226.97C1239.83 229.46 1236.86 230.58 1236.24 230.98C1232.64 232.43 1229.26 232.29 1228.49 232.43C1224.41 232.43 1221.58 231.13 1220.81 230.98C1217.21 229.46 1215.15 227.37 1214.52 226.97C1211.89 224.41 1210.78 221.49 1210.37 220.88C1209.35 218.53 1208.84 216.02 1208.84 213.34C1209.76 208.82 1210.26 206.3 1210.37 205.8ZM1235.75 220.88C1238.73 217.77 1238.43 214.09 1238.73 213.34C1238.73 208.78 1236.05 206.43 1235.75 205.66C1232.78 202.55 1229.22 202.86 1228.49 202.55C1224.27 202.55 1222.01 205.35 1221.3 205.66C1218.32 208.78 1218.62 212.57 1218.32 213.34C1218.32 217.77 1221 220.13 1221.3 220.88C1223.28 222.96 1225.68 223.99 1228.49 223.99C1232.85 222.13 1235.27 221.09 1235.75 220.88ZM1254.14 194.8L1263.89 194.8C1263.89 196.55 1263.89 197.51 1263.89 197.71C1265.97 195.98 1268.06 195.34 1268.53 195.08C1271.15 194.11 1273.63 194.21 1274.2 194.11C1280.56 194.11 1283.6 197.85 1284.64 198.26C1287.41 200.98 1288.79 204.49 1288.79 208.78L1288.79 231.74L1279.11 231.74C1279.11 218.83 1279.11 211.66 1279.11 210.23C1279.11 206.77 1277.18 205.19 1276.96 204.62C1274.89 202.48 1271.98 202.69 1271.43 202.48C1269.01 202.48 1267.51 203.35 1267.07 203.45C1265.78 204.09 1264.72 204.99 1263.89 206.15L1263.89 231.74L1254.14 231.74L1254.14 194.8ZM1297.87 220.88C1301.12 223.03 1303.41 223.74 1304.03 224.06C1306.93 225.1 1309.26 225 1309.84 225.1C1313.09 225.1 1314.51 224.17 1315.03 224.06C1316.96 222.96 1316.77 221.45 1316.96 221.16C1316.96 219.77 1315.97 219.17 1315.86 218.94C1315.16 218.34 1314.01 217.93 1312.4 217.7C1308.12 217.08 1305.75 216.73 1305.27 216.66C1299.88 215.83 1297.8 213.49 1296.97 213.13C1294.14 210.44 1294.42 206.66 1294.14 205.94C1294.14 200.61 1297.87 198.28 1298.29 197.43C1302.44 194.25 1308.37 194.57 1309.49 194.25C1313.5 194.25 1316.53 195.31 1317.31 195.42C1319.89 196.21 1322.34 197.36 1324.64 198.88C1321.82 202.62 1320.25 204.69 1319.94 205.11C1316.89 203.31 1314.71 202.74 1314.13 202.48C1311.36 201.58 1309.08 201.67 1308.52 201.58C1305.96 201.58 1304.79 202.45 1304.37 202.55C1302.78 203.52 1302.94 204.92 1302.78 205.18C1302.78 206.7 1303.78 207.29 1303.89 207.53C1304.67 208.04 1305.96 208.41 1307.76 208.64C1312.04 209.3 1314.41 209.67 1314.89 209.74C1320.21 210.5 1322.3 212.92 1323.12 213.27C1326.09 216.04 1325.8 219.56 1326.09 220.26C1326.09 222.89 1324.97 224.68 1324.85 225.17C1323.67 227.38 1321.86 228.66 1321.53 229.04C1319.38 230.63 1316.92 231.28 1316.41 231.53C1313.44 232.43 1310.62 232.34 1309.98 232.43C1304.93 232.43 1301.45 231.25 1300.5 231.12C1297.59 230.24 1295.1 229 1293.03 227.38C1295.93 223.48 1297.55 221.31 1297.87 220.88Z" id="bNWmP1Ah3"></path><path d="M1355.49 231.74L1344.84 182.14L1350.37 182.14L1358.81 223.09L1371.05 182.14L1376.38 182.14L1388.62 222.96L1397.13 182.14L1402.39 182.14L1391.74 231.74L1386.2 231.74L1373.68 189.75L1361.02 231.74L1355.49 231.74ZM1429.72 231.26C1426.46 232.36 1423.37 232.25 1422.66 232.36C1418.86 232.36 1416.19 231.12 1415.47 230.98C1412.15 229.53 1410.24 227.49 1409.66 227.11C1407.23 224.62 1406.17 221.81 1405.78 221.23C1404.4 217.84 1404.54 214.69 1404.4 213.96C1404.4 210.16 1405.64 207.55 1405.78 206.84C1407.17 203.45 1409.08 201.61 1409.45 201.03C1411.8 198.54 1414.49 197.54 1415.05 197.15C1418.3 195.7 1421.21 195.85 1421.9 195.7C1425.43 195.7 1427.81 197.01 1428.47 197.15C1431.58 198.54 1433.26 200.64 1433.8 201.03C1436.08 203.45 1437.03 206.26 1437.39 206.84C1438.27 209.05 1438.71 211.43 1438.71 213.96L1438.71 215.62C1421.24 215.62 1411.53 215.62 1409.59 215.62C1410.14 220.81 1413.45 223.47 1413.88 224.34C1417.61 227.8 1421.97 227.45 1422.87 227.8C1425.63 227.8 1427.72 227.05 1428.26 226.97C1430.02 226.37 1431.49 225.56 1432.69 224.55L1435.94 228.01C1432.21 229.96 1430.13 231.04 1429.72 231.26ZM1413.74 203.38C1411.52 205.45 1410.19 208.13 1409.73 211.4C1423.96 211.4 1431.87 211.4 1433.45 211.4C1432.76 206.77 1429.84 204.31 1429.44 203.52C1427.23 201.35 1424.67 200.27 1421.76 200.27C1416.95 202.13 1414.27 203.17 1413.74 203.38ZM1479.07 221.23C1477.69 224.62 1475.65 226.46 1475.27 227.04C1472.92 229.46 1470.16 230.52 1469.6 230.91C1466.28 232.29 1463.25 232.16 1462.54 232.29C1459.43 232.29 1457.06 231.36 1456.45 231.26C1454.52 230.52 1452.74 229.5 1451.13 228.21L1451.13 231.74L1446.01 231.74L1446.01 182.14L1451.2 180.97C1451.2 192.38 1451.2 198.72 1451.2 199.99C1453.41 197.91 1455.8 197.13 1456.32 196.81C1459.29 195.7 1461.98 195.81 1462.61 195.7C1466.35 195.7 1468.9 197.01 1469.6 197.15C1472.92 198.54 1474.7 200.58 1475.27 200.96C1477.69 203.38 1478.69 206.19 1479.07 206.77C1480 209.03 1480.46 211.43 1480.46 213.96C1479.63 218.32 1479.17 220.74 1479.07 221.23ZM1455.9 201.58C1454.01 202.46 1452.44 203.68 1451.2 205.25C1451.2 215.79 1451.2 221.65 1451.2 222.82C1453.06 225.1 1455.49 226.05 1455.97 226.41C1458.88 227.73 1461.51 227.6 1462.13 227.73C1467.73 227.73 1470.53 224.18 1471.46 223.79C1475.27 219.84 1474.89 215.01 1475.27 214.03C1475.27 211.13 1474.34 209.18 1474.23 208.64C1473.26 206.08 1471.74 204.71 1471.46 204.28C1469.74 202.41 1467.73 201.66 1467.31 201.37C1465.7 200.64 1463.97 200.27 1462.13 200.27C1458.39 201.06 1456.32 201.49 1455.9 201.58ZM1536.23 225.72C1539.05 224.48 1541.4 222.79 1543.29 220.67C1545.41 222.91 1546.58 224.16 1546.82 224.41C1543.15 228.21 1538.91 229.76 1538.03 230.36C1532.98 232.5 1528.44 232.29 1527.38 232.5C1521.98 232.5 1518.29 230.76 1517.28 230.56C1512.58 228.56 1509.87 225.71 1509.05 225.17C1505.59 221.71 1504.13 217.82 1503.58 217.01C1501.65 212.23 1501.84 207.98 1501.65 206.98C1501.65 201.65 1503.39 197.95 1503.58 196.95C1505.59 192.24 1508.5 189.6 1509.05 188.78C1512.58 185.33 1516.46 183.93 1517.28 183.39C1521.98 181.38 1526.37 181.58 1527.38 181.38C1533.12 181.38 1537.15 183.31 1538.24 183.53C1541.65 184.96 1544.56 186.96 1546.95 189.54C1544.8 191.83 1543.6 193.1 1543.36 193.35C1540.45 190.1 1536.88 188.8 1536.16 188.3C1531.88 186.43 1528.26 186.62 1527.38 186.43C1523.09 186.43 1520.16 187.86 1519.35 188.02C1515.69 189.61 1513.63 191.95 1512.99 192.38C1510.29 195.08 1509.13 198.23 1508.7 198.88C1507.18 202.62 1507.33 206.17 1507.18 206.98C1507.18 211.27 1508.55 214.26 1508.7 215.07C1510.29 218.87 1512.56 220.92 1512.99 221.57C1515.76 224.27 1518.78 225.49 1519.42 225.93C1521.91 226.99 1524.61 227.52 1527.52 227.52C1532.75 226.44 1535.65 225.84 1536.23 225.72ZM1552.48 206.77C1553.93 203.31 1555.96 201.48 1556.35 200.89C1558.84 198.4 1561.58 197.4 1562.16 197.02C1565.48 195.56 1568.51 195.71 1569.22 195.56C1572.95 195.56 1575.57 196.87 1576.27 197.02C1579.59 198.4 1581.44 200.5 1582.02 200.89C1584.44 203.31 1585.44 206.18 1585.82 206.77C1587.27 210.16 1587.13 213.24 1587.27 213.96C1587.27 217.84 1585.96 220.56 1585.82 221.3C1584.44 224.69 1582.4 226.59 1582.02 227.18C1579.59 229.6 1576.85 230.66 1576.27 231.05C1572.95 232.43 1569.92 232.29 1569.22 232.43C1565.48 232.43 1562.87 231.19 1562.16 231.05C1558.84 229.6 1556.93 227.56 1556.35 227.18C1553.93 224.69 1552.87 221.88 1552.48 221.3C1551.56 218.99 1551.09 216.55 1551.09 213.96C1551.92 209.65 1552.39 207.25 1552.48 206.77ZM1574.27 226.76C1576.69 225.65 1578 224.08 1578.42 223.79C1580.15 221.92 1580.85 219.86 1581.12 219.43C1582.08 216.87 1581.99 214.51 1582.08 213.96C1582.08 211.06 1581.21 209.11 1581.12 208.57C1580.15 206.01 1578.69 204.65 1578.42 204.21C1576.69 202.34 1574.68 201.59 1574.27 201.3C1571.92 200.2 1569.72 200.31 1569.22 200.2C1566.52 200.2 1564.67 201.19 1564.17 201.3C1561.82 202.34 1560.43 203.92 1560.02 204.21C1558.29 206.01 1557.53 208.13 1557.25 208.57C1556.28 211.06 1556.38 213.42 1556.28 213.96C1556.28 216.87 1557.15 218.88 1557.25 219.43C1558.22 221.92 1559.68 223.35 1559.95 223.79C1561.75 225.65 1563.68 226.46 1564.1 226.76C1565.71 227.45 1567.42 227.8 1569.22 227.8C1572.25 227.18 1573.93 226.83 1574.27 226.76ZM1594.62 196.25L1599.81 196.25C1599.81 198.75 1599.81 200.13 1599.81 200.41C1601.88 198.05 1604.23 197.17 1604.72 196.81C1607.55 195.56 1610.38 195.69 1611.01 195.56C1617.03 195.56 1619.85 198.99 1620.83 199.37C1623.42 201.9 1624.71 205.2 1624.71 209.26L1624.71 231.74L1619.52 231.74C1619.52 218.92 1619.52 211.79 1619.52 210.37C1619.52 205.66 1617.09 203.64 1616.82 202.9C1614.12 200.13 1610.35 200.41 1609.63 200.13C1606.45 200.13 1604.46 201.44 1603.89 201.58C1602.23 202.5 1600.87 203.84 1599.81 205.59L1599.81 231.74L1594.62 231.74L1594.62 196.25ZM1633.02 223.44C1635.44 225.72 1637.88 226.62 1638.42 226.97C1641.46 228.21 1643.96 228.09 1644.57 228.21C1648.86 228.21 1650.86 226.66 1651.56 226.48C1654.26 224.69 1653.99 222.31 1654.26 221.85C1654.26 219.57 1652.76 218.61 1652.6 218.25C1651.54 217.38 1649.88 216.78 1647.62 216.45C1643.92 215.96 1641.87 215.68 1641.46 215.62C1636.13 214.79 1634.36 212.76 1633.57 212.44C1631.01 210.09 1631.27 206.65 1631.01 206.01C1631.01 201.58 1634.38 199.41 1634.75 198.68C1638.49 195.7 1643.34 196 1644.3 195.7C1648.1 195.7 1650.83 196.76 1651.56 196.88C1653.87 197.62 1656.1 198.77 1658.27 200.34C1656.61 202.49 1655.69 203.69 1655.5 203.93C1652.53 201.93 1650.27 201.26 1649.69 200.96C1646.92 199.92 1644.59 200.02 1644.02 199.92C1640.42 199.92 1638.67 201.42 1638.07 201.58C1635.79 203.17 1636.02 205.38 1635.79 205.8C1635.79 208.08 1637.16 208.98 1637.31 209.33C1638.37 210.16 1640.08 210.74 1642.43 211.06C1646.12 211.56 1648.17 211.83 1648.58 211.89C1653.84 212.65 1655.68 214.75 1656.47 215.07C1659.17 217.49 1658.9 220.92 1659.17 221.57C1659.17 223.79 1658.17 225.43 1658.06 225.86C1656.95 227.87 1655.32 228.97 1655.02 229.32C1653.08 230.77 1650.91 231.37 1650.45 231.6C1647.82 232.36 1645.35 232.29 1644.78 232.36C1640.42 232.36 1637.37 231.06 1636.55 230.91C1633.97 229.94 1631.73 228.58 1629.84 226.83C1631.75 224.8 1632.81 223.67 1633.02 223.44ZM1665.17 206.77C1666.63 203.31 1668.66 201.48 1669.05 200.89C1671.54 198.4 1674.28 197.4 1674.86 197.02C1678.18 195.56 1681.21 195.71 1681.91 195.56C1685.65 195.56 1688.26 196.87 1688.97 197.02C1692.29 198.4 1694.14 200.5 1694.71 200.89C1697.13 203.31 1698.14 206.18 1698.52 206.77C1699.97 210.16 1699.82 213.24 1699.97 213.96C1699.97 217.84 1698.66 220.56 1698.52 221.3C1697.13 224.69 1695.09 226.59 1694.71 227.18C1692.29 229.6 1689.54 230.66 1688.97 231.05C1685.65 232.43 1682.62 232.29 1681.91 232.43C1678.18 232.43 1675.56 231.19 1674.86 231.05C1671.54 229.6 1669.63 227.56 1669.05 227.18C1666.63 224.69 1665.56 221.88 1665.17 221.3C1664.25 218.99 1663.79 216.55 1663.79 213.96C1664.62 209.65 1665.08 207.25 1665.17 206.77ZM1686.96 226.76C1689.38 225.65 1690.7 224.08 1691.11 223.79C1692.84 221.92 1693.54 219.86 1693.81 219.43C1694.78 216.87 1694.68 214.51 1694.78 213.96C1694.78 211.06 1693.91 209.11 1693.81 208.57C1692.84 206.01 1691.38 204.65 1691.11 204.21C1689.38 202.34 1687.38 201.59 1686.96 201.3C1684.61 200.2 1682.42 200.31 1681.91 200.2C1679.22 200.2 1677.37 201.19 1676.86 201.3C1674.51 202.34 1673.13 203.92 1672.71 204.21C1670.98 206.01 1670.22 208.13 1669.95 208.57C1668.98 211.06 1669.08 213.42 1668.98 213.96C1668.98 216.87 1669.85 218.88 1669.95 219.43C1670.92 221.92 1672.38 223.35 1672.64 223.79C1674.44 225.65 1676.38 226.46 1676.8 226.76C1678.41 227.45 1680.12 227.8 1681.91 227.8C1684.94 227.18 1686.63 226.83 1686.96 226.76ZM1712.5 231.74L1707.31 231.74L1707.31 182.14L1712.5 180.97L1712.5 231.74ZM1745.14 231.26C1741.89 232.36 1738.79 232.25 1738.08 232.36C1734.28 232.36 1731.61 231.12 1730.89 230.98C1727.57 229.53 1725.66 227.49 1725.08 227.11C1722.66 224.62 1721.59 221.81 1721.2 221.23C1719.82 217.84 1719.96 214.69 1719.82 213.96C1719.82 210.16 1721.07 207.55 1721.2 206.84C1722.59 203.45 1724.5 201.61 1724.87 201.03C1727.22 198.54 1729.91 197.54 1730.47 197.15C1733.72 195.7 1736.64 195.85 1737.32 195.7C1740.85 195.7 1743.24 197.01 1743.89 197.15C1747.01 198.54 1748.69 200.64 1749.22 201.03C1751.5 203.45 1752.46 206.26 1752.82 206.84C1753.69 209.05 1754.13 211.43 1754.13 213.96L1754.13 215.62C1736.66 215.62 1726.95 215.62 1725.01 215.62C1725.56 220.81 1728.87 223.47 1729.3 224.34C1733.03 227.8 1737.39 227.45 1738.29 227.8C1741.06 227.8 1743.15 227.05 1743.68 226.97C1745.44 226.37 1746.91 225.56 1748.11 224.55L1751.36 228.01C1747.63 229.96 1745.55 231.04 1745.14 231.26ZM1729.16 203.38C1726.94 205.45 1725.61 208.13 1725.15 211.4C1739.38 211.4 1747.29 211.4 1748.87 211.4C1748.18 206.77 1745.26 204.31 1744.86 203.52C1742.65 201.35 1740.09 200.27 1737.18 200.27C1732.37 202.13 1729.69 203.17 1729.16 203.38Z" id="dznF7Jgxx"></path><path d="M133.45 97.51C143.67 97.51 158.46 95.4 158.46 83.24C158.49 82.3 158.41 81.36 158.21 80.45C157.6 77.8 152.73 56.64 152.12 54C150.72 48.18 149.48 45.54 139.27 40.43C131.34 36.38 114.07 29.69 108.96 29.69C104.21 29.69 102.83 35.82 97.16 35.82C91.7 35.82 87.64 31.24 82.54 31.24C77.63 31.24 74.44 34.58 71.97 41.46C71.97 41.46 65.1 60.84 64.21 63.65C64.07 64.17 64.01 64.7 64.03 65.24C64.03 72.77 93.7 97.48 133.45 97.48M160.03 88.18C161.45 94.87 161.45 95.57 161.45 96.45C161.45 107.9 148.58 114.25 131.67 114.25C93.46 114.27 59.99 91.88 59.99 77.08C59.99 75.02 60.41 72.98 61.22 71.09C47.48 71.77 29.69 74.23 29.69 89.93C29.69 115.66 90.64 147.37 138.91 147.37C175.91 147.37 185.24 130.63 185.24 117.42C185.24 107.02 176.25 95.22 160.05 88.18" id="doQtO1lhk"></path><path d="M160.03 88.18C161.45 94.87 161.45 95.57 161.45 96.45C161.45 107.9 148.58 114.25 131.67 114.25C93.46 114.27 59.99 91.88 59.99 77.08C59.99 75.02 60.41 72.98 61.22 71.09C61.52 70.35 63.92 64.42 64.21 63.68C64.08 64.19 64.02 64.71 64.03 65.24C64.03 72.77 93.7 97.48 133.45 97.48C143.67 97.48 158.46 95.37 158.46 83.21C158.49 82.27 158.41 81.33 158.21 80.41C158.57 81.97 159.67 86.62 160.03 88.18Z" id="i204ULlSUh"></path><path d="M503.05 105.12C503.05 114.83 508.89 119.56 519.55 119.56C522.83 119.48 526.09 119.02 529.26 118.18C529.26 117.06 529.26 108.04 529.26 106.91C527.23 107.56 525.12 107.88 522.99 107.86C518.6 107.86 516.97 106.49 516.97 102.36C516.97 101.21 516.97 95.46 516.97 85.1L529.69 85.1L529.69 73.49L516.97 73.49L516.97 58.78L503.08 61.79L503.08 73.49L493.85 73.49L493.85 85.1L503.05 85.1C503.05 95.77 503.05 102.45 503.05 105.12ZM459.73 105.38C459.73 102.37 462.75 100.91 467.3 100.91C470.08 100.92 472.85 101.27 475.56 101.94C475.56 102.52 475.56 107.2 475.56 107.78C472.89 109.24 469.9 109.98 466.87 109.93C462.41 109.93 459.73 108.21 459.73 105.38M463.98 119.73C468.89 119.73 472.84 118.7 476.54 116.21C476.54 116.39 476.54 117.31 476.54 118.96L490.28 118.96C490.28 101.48 490.28 91.76 490.28 89.82C490.28 78.74 482.81 72.66 470.35 72.66C463.39 72.66 456.51 74.29 449.1 77.64C449.6 78.67 453.59 86.85 454.09 87.87C459.42 85.63 463.89 84.26 467.84 84.26C473.56 84.26 476.52 86.49 476.52 91.05C476.52 91.28 476.52 93.06 476.52 93.28C473.15 92.41 469.69 91.98 466.21 91.99C454.51 91.99 447.47 96.9 447.47 105.66C447.47 113.66 453.83 119.75 463.97 119.75M388.43 118.99L403.21 118.99L403.21 95.41L427.96 95.41L427.96 118.96L442.79 118.96L442.79 58.8L428.02 58.8L428.02 81.92L403.27 81.92L403.27 58.8L388.48 58.8L388.43 118.99ZM332.15 96.18C332.15 89.65 337.31 84.66 344.1 84.66C347.63 84.59 351.06 85.85 353.71 88.19C353.71 89.78 353.71 102.5 353.71 104.09C351.12 106.53 347.66 107.85 344.1 107.73C337.4 107.73 332.15 102.75 332.15 96.22M353.9 118.99L367.65 118.99L367.65 55.79L353.76 58.8C353.76 69.06 353.76 74.76 353.76 75.9C350.22 73.9 346.22 72.86 342.15 72.89C328.92 72.89 318.52 83.12 318.52 96.18C318.36 108.93 328.57 119.4 341.32 119.56C341.46 119.56 341.59 119.56 341.73 119.56C346.11 119.58 350.39 118.2 353.93 115.61C353.93 116.06 353.92 117.19 353.9 118.99ZM290.79 84.03C295.17 84.03 298.86 86.87 300.32 91.25C298.43 91.25 283.26 91.25 281.36 91.25C282.74 86.73 286.18 84.03 290.79 84.03M267.36 96.29C267.36 109.53 278.18 119.84 292.1 119.84C299.75 119.84 305.34 117.78 311.1 112.96C310.18 112.15 302.82 105.61 301.9 104.79C299.75 107.03 296.57 108.23 292.8 108.23C287.94 108.37 283.49 105.5 281.62 101.01C283.78 101.01 294.58 101.01 314.02 101.01C314.02 98.94 314.02 97.79 314.02 97.56C314.02 83.12 304.31 72.72 291.07 72.72C278.18 72.53 267.57 82.82 267.37 95.72C267.37 95.9 267.37 96.08 267.37 96.27M243.39 71.43C248.29 71.43 251.04 74.52 251.04 78.22C251.04 81.92 248.29 85.01 243.39 85.01C242.41 85.01 237.54 85.01 228.77 85.01L228.77 71.43C236.56 71.43 241.44 71.43 243.39 71.43ZM213.97 118.96L228.75 118.96L228.75 97.04L240 97.04L251.35 118.96L267.9 118.96C259.96 104.52 255.55 96.5 254.66 94.89C261.55 92.09 266.04 85.39 266.01 77.96C266.01 67.13 257.5 58.8 244.76 58.8C242.71 58.8 232.44 58.8 213.97 58.8L213.97 118.96Z" id="a4Ayls3Bg"></path></defs><g><g><g><use xlink:href="#au62lossy" opacity="1" fill="#000000" fill-opacity="0"></use><g><use xlink:href="#au62lossy" opacity="1" fill-opacity="0" stroke="#000000" stroke-width="1" stroke-opacity="0"></use></g></g><g><use xlink:href="#bdt05sXBK" opacity="1" fill="#000000" fill-opacity="0"></use><g><use xlink:href="#bdt05sXBK" opacity="1" fill-opacity="0" stroke="#000000" stroke-width="1" stroke-opacity="0"></use></g></g><g><use xlink:href="#bNWmP1Ah3" opacity="1" fill="#ffffff" fill-opacity="1"></use><g><use xlink:href="#bNWmP1Ah3" opacity="1" fill-opacity="0" stroke="#000000" stroke-width="1" stroke-opacity="0"></use></g></g><g><use xlink:href="#dznF7Jgxx" opacity="1" fill="#ffffff" fill-opacity="1"></use><g><use xlink:href="#dznF7Jgxx" opacity="1" fill-opacity="0" stroke="#000000" stroke-width="1" stroke-opacity="0"></use></g></g><g><use xlink:href="#doQtO1lhk" opacity="1" fill="#ee0000" fill-opacity="1"></use><g><use xlink:href="#doQtO1lhk" opacity="1" fill-opacity="0" stroke="#000000" stroke-width="1" stroke-opacity="0"></use></g></g><g><use xlink:href="#i204ULlSUh" opacity="1" fill="#000000" fill-opacity="1"></use><g><use xlink:href="#i204ULlSUh" opacity="1" fill-opacity="0" stroke="#000000" stroke-width="1" stroke-opacity="0"></use></g></g><g><use xlink:href="#a4Ayls3Bg" opacity="1" fill="#ffffff" fill-opacity="1"></use><g><use xlink:href="#a4Ayls3Bg" opacity="1" fill-opacity="0" stroke="#000000" stroke-width="1" stroke-opacity="0"></use></g></g></g></g></svg>
