<svg version="1.1" height="40" viewBox="0.0 0.0 57.6010498687664 33.6010498687664" fill="none" stroke="none" stroke-linecap="square" stroke-miterlimit="10" xmlns:xlink="http://www.w3.org/1999/xlink" xmlns="http://www.w3.org/2000/svg"><clipPath id="p.0"><path d="m0 0l57.60105 0l0 33.60105l-57.60105 0l0 -33.60105z" clip-rule="nonzero"/></clipPath><g clip-path="url(#p.0)"><path fill="#000000" fill-opacity="0.0" d="m0 0l57.60105 0l0 33.60105l-57.60105 0z" fill-rule="evenodd"/><path fill="#000000" fill-opacity="0.0" d="m0 0l57.6063 0l0 33.574802l-57.6063 0z" fill-rule="evenodd"/><path fill="#ffffff" d="m14.4375 21.133026l-3.546875 -6.8125l0 7.546875l-1.96875 0l0 -10.265625l2.734375 0l2.8125 5.515625l2.8125 -5.515625l2.71875 0l0 10.265625l-2.0 0l0 -7.53125l-3.5625 6.796875zm6.7549896 -7.65625l0 -1.875l9.03125 0l0 1.875l-3.453125 0l0 8.390625l-2.125 0l0 -8.390625l-3.453125 0zm7.218445 8.390625l4.21875 -10.265625l2.46875 0l4.15625 10.265625l-2.296875 0l-1.03125 -2.703125l-4.25 0l-1.046875 2.703125l-2.21875 0zm3.9375 -4.390625l2.921875 0l-1.453125 -3.78125l-1.46875 3.78125z" fill-rule="nonzero"/></g></svg>