<svg id="e1bbdbad-4006-4526-8ba7-22744e45f970" data-name="Icon" xmlns="http://www.w3.org/2000/svg" viewBox="0 0 36 36">
  <defs>
    <style>
      .ae6e1551-d493-493e-bed6-b6a66e091221 {
        fill: #e00;
      }
    </style>
  </defs>
  <g>
    <path class="ae6e1551-d493-493e-bed6-b6a66e091221" d="M27,23.37a.63.63,0,0,0-.62.63.63.63,0,0,0,1.25,0A.63.63,0,0,0,27,23.37Z"/>
    <path class="ae6e1551-d493-493e-bed6-b6a66e091221" d="M18,9.38a.63.63,0,0,0-.62.63.63.63,0,0,0,1.25,0A.63.63,0,0,0,18,9.38Z"/>
    <path class="ae6e1551-d493-493e-bed6-b6a66e091221" d="M20,9.38a.63.63,0,0,0-.62.63.63.63,0,0,0,1.25,0A.63.63,0,0,0,20,9.38Z"/>
    <g>
      <path class="ae6e1551-d493-493e-bed6-b6a66e091221" d="M31,18.38H5a.62.62,0,0,0-.62.62V29a.62.62,0,0,0,.62.62H31a.62.62,0,0,0,.62-.62V19A.62.62,0,0,0,31,18.38Zm-.62,10H5.62V19.62H30.38Z"/>
      <path class="ae6e1551-d493-493e-bed6-b6a66e091221" d="M9,24.62h6a.62.62,0,0,0,0-1.24H9a.62.62,0,0,0,0,1.24Z"/>
      <path class="ae6e1551-d493-493e-bed6-b6a66e091221" d="M13,17.62H23a.62.62,0,0,0,.62-.62V7A.62.62,0,0,0,23,6.38H13a.62.62,0,0,0-.62.62V17A.62.62,0,0,0,13,17.62Zm.62-10h8.76v8.76H13.62Z"/>
    </g>
  </g>
</svg>
