<svg width="526" height="525" xmlns="http://www.w3.org/2000/svg" xmlns:xlink="http://www.w3.org/1999/xlink" xml:space="preserve" overflow="hidden"><defs><clipPath id="clip0"><rect x="640" y="128" width="526" height="525"/></clipPath></defs><g clip-path="url(#clip0)" transform="translate(-640 -128)"><path d="M459.375 421.094 306.25 421.094 306.25 399.219 267.969 399.219 267.969 350 415.625 350C427.706 350 437.5 340.206 437.5 328.125L437.5 273.438C437.48 267.132 434.722 261.145 429.942 257.031 434.722 252.918 437.48 246.931 437.5 240.625L437.5 185.938C437.48 179.631 434.722 173.645 429.942 169.531 434.722 165.418 437.48 159.431 437.5 153.125L437.5 98.4375C437.5 86.3565 427.706 76.5625 415.625 76.5625L109.375 76.5625C97.294 76.5625 87.5 86.3565 87.5 98.4375L87.5 153.125C87.5202 159.431 90.2781 165.418 95.0578 169.531 90.2781 173.645 87.5202 179.631 87.5 185.938L87.5 240.625C87.5202 246.931 90.2781 252.918 95.0578 257.031 90.2781 261.145 87.5202 267.132 87.5 273.438L87.5 328.125C87.5 340.206 97.294 350 109.375 350L257.031 350 257.031 399.219 218.75 399.219 218.75 421.094 65.625 421.094 65.625 432.031 218.75 432.031 218.75 453.906 306.25 453.906 306.25 432.031 459.375 432.031ZM98.4375 153.125 98.4375 98.4375C98.4375 92.3967 103.334 87.5 109.375 87.5L415.625 87.5C421.666 87.5 426.562 92.3967 426.562 98.4375L426.562 153.125C426.562 159.166 421.666 164.062 415.625 164.062L109.375 164.062C103.334 164.062 98.4375 159.166 98.4375 153.125ZM98.4375 240.625 98.4375 185.938C98.4375 179.897 103.334 175 109.375 175L415.625 175C421.666 175 426.562 179.897 426.562 185.938L426.562 240.625C426.562 246.666 421.666 251.562 415.625 251.562L109.375 251.562C103.334 251.562 98.4375 246.666 98.4375 240.625ZM98.4375 328.125 98.4375 273.438C98.4375 267.397 103.334 262.5 109.375 262.5L415.625 262.5C421.666 262.5 426.562 267.397 426.562 273.438L426.562 328.125C426.562 334.166 421.666 339.062 415.625 339.062L109.375 339.062C103.334 339.062 98.4375 334.166 98.4375 328.125ZM295.312 442.969 229.688 442.969 229.688 410.156 295.312 410.156Z" stroke="#008AD7" stroke-width="5.46875" fill="#008AD7" transform="matrix(1.0019 0 0 1 640 128)"/><path d="M153.125 125.781C153.125 131.822 148.228 136.719 142.188 136.719 136.147 136.719 131.25 131.822 131.25 125.781 131.25 119.741 136.147 114.844 142.188 114.844 148.228 114.844 153.125 119.741 153.125 125.781Z" stroke="#008AD7" stroke-width="5.46875" fill="#008AD7" transform="matrix(1.0019 0 0 1 640 128)"/><path d="M207.812 125.781C207.812 131.822 202.916 136.719 196.875 136.719 190.834 136.719 185.938 131.822 185.938 125.781 185.938 119.741 190.834 114.844 196.875 114.844 202.916 114.844 207.812 119.741 207.812 125.781Z" stroke="#008AD7" stroke-width="5.46875" fill="#008AD7" transform="matrix(1.0019 0 0 1 640 128)"/><path d="M262.5 125.781C262.5 131.822 257.603 136.719 251.562 136.719 245.522 136.719 240.625 131.822 240.625 125.781 240.625 119.741 245.522 114.844 251.562 114.844 257.603 114.844 262.5 119.741 262.5 125.781Z" stroke="#008AD7" stroke-width="5.46875" fill="#008AD7" transform="matrix(1.0019 0 0 1 640 128)"/><path d="M153.125 213.281C153.125 219.322 148.228 224.219 142.188 224.219 136.147 224.219 131.25 219.322 131.25 213.281 131.25 207.241 136.147 202.344 142.188 202.344 148.228 202.344 153.125 207.241 153.125 213.281Z" stroke="#008AD7" stroke-width="5.46875" fill="#008AD7" transform="matrix(1.0019 0 0 1 640 128)"/><path d="M207.812 213.281C207.812 219.322 202.916 224.219 196.875 224.219 190.834 224.219 185.938 219.322 185.938 213.281 185.938 207.241 190.834 202.344 196.875 202.344 202.916 202.344 207.812 207.241 207.812 213.281Z" stroke="#008AD7" stroke-width="5.46875" fill="#008AD7" transform="matrix(1.0019 0 0 1 640 128)"/><path d="M262.5 213.281C262.5 219.322 257.603 224.219 251.562 224.219 245.522 224.219 240.625 219.322 240.625 213.281 240.625 207.241 245.522 202.344 251.562 202.344 257.603 202.344 262.5 207.241 262.5 213.281Z" stroke="#008AD7" stroke-width="5.46875" fill="#008AD7" transform="matrix(1.0019 0 0 1 640 128)"/><path d="M153.125 300.781C153.125 306.822 148.228 311.719 142.188 311.719 136.147 311.719 131.25 306.822 131.25 300.781 131.25 294.741 136.147 289.844 142.188 289.844 148.228 289.844 153.125 294.741 153.125 300.781Z" stroke="#008AD7" stroke-width="5.46875" fill="#008AD7" transform="matrix(1.0019 0 0 1 640 128)"/><path d="M207.812 300.781C207.812 306.822 202.916 311.719 196.875 311.719 190.834 311.719 185.938 306.822 185.938 300.781 185.938 294.741 190.834 289.844 196.875 289.844 202.916 289.844 207.812 294.741 207.812 300.781Z" stroke="#008AD7" stroke-width="5.46875" fill="#008AD7" transform="matrix(1.0019 0 0 1 640 128)"/><path d="M262.5 300.781C262.5 306.822 257.603 311.719 251.562 311.719 245.522 311.719 240.625 306.822 240.625 300.781 240.625 294.741 245.522 289.844 251.562 289.844 257.603 289.844 262.5 294.741 262.5 300.781Z" stroke="#008AD7" stroke-width="5.46875" fill="#008AD7" transform="matrix(1.0019 0 0 1 640 128)"/></g></svg>