<svg id="e44e5bb4-e340-473b-b671-144936fe544b" data-name="Icon" xmlns="http://www.w3.org/2000/svg" viewBox="0 0 36 36">
  <defs>
    <style>
      .e4f4e37a-7589-4986-acd8-3046828327dc {
        fill: #e00;
      }
    </style>
  </defs>
  <path class="e4f4e37a-7589-4986-acd8-3046828327dc" d="M27,18.62a.62.62,0,1,0-.62-.62A.61.61,0,0,0,27,18.62Z"/>
  <g>
    <path class="e4f4e37a-7589-4986-acd8-3046828327dc" d="M31,12.38H5a.61.61,0,0,0-.62.62V23a.61.61,0,0,0,.62.62H31a.61.61,0,0,0,.62-.62V13A.61.61,0,0,0,31,12.38Zm-.62,10H5.62V13.62H30.38Z"/>
    <path class="e4f4e37a-7589-4986-acd8-3046828327dc" d="M9,18.62h6a.62.62,0,0,0,0-1.24H9a.62.62,0,0,0,0,1.24Z"/>
  </g>
</svg>
