<svg id="fd8125ca-3d08-4e8d-8d26-f8a0e74cd2ba" data-name="Icon" xmlns="http://www.w3.org/2000/svg" viewBox="0 0 36 36">
  <defs>
    <style>
      .b4f5f3e9-845c-4a5c-8979-53b52e8f8cf6 {
        fill: #e00;
      }
    </style>
  </defs>
  <g>
    <path class="b4f5f3e9-845c-4a5c-8979-53b52e8f8cf6" d="M27,30.38H4a.62.62,0,0,0,0,1.24H27A.62.62,0,0,0,27,30.38Z"/>
    <path class="b4f5f3e9-845c-4a5c-8979-53b52e8f8cf6" d="M25.72,8V5a.63.63,0,0,0-.63-.62H5A.62.62,0,0,0,4.38,5V21A6.63,6.63,0,0,0,11,27.62h8.09A6.63,6.63,0,0,0,25.72,21C33.53,20.05,33.53,8.86,25.72,8ZM24.47,21a5.39,5.39,0,0,1-5.38,5.38H11A5.39,5.39,0,0,1,5.62,21V5.62H24.47Zm1.25-1.32V9.23A5.26,5.26,0,0,1,25.72,19.68Z"/>
  </g>
</svg>
