<svg version="1.1" viewBox="0.0 0.0 250.0 33.6010498687664" fill="none" stroke="none" stroke-linecap="square" stroke-miterlimit="10" xmlns:xlink="http://www.w3.org/1999/xlink" xmlns="http://www.w3.org/2000/svg"><clipPath id="p.0"><path d="m0 0l250.0 0l0 33.60105l-250.0 0l0 -33.60105z" clip-rule="nonzero"/></clipPath><g clip-path="url(#p.0)"><path fill="#000000" fill-opacity="0.0" d="m0 0l250.0 0l0 33.60105l-250.0 0z" fill-rule="evenodd"/><path fill="#000000" fill-opacity="0.0" d="m0 0l250.01575 0l0 33.574802l-250.01575 0z" fill-rule="evenodd"/><path fill="#ffffff" d="m10.65625 21.867401l-2.28125 -10.265625l2.1875 0l1.390625 6.953125l2.0 -6.953125l2.0 0l2.0 6.9375l1.390625 -6.9375l2.109375 0l-2.25 10.265625l-2.25 0l-2.015625 -7.15625l-2.0625 7.15625l-2.21875 0zm11.976181 0l0 -7.640625l2.0 0l0 7.640625l-2.0 0zm0.984375 -8.546875q-0.46875 0 -0.8125 -0.328125q-0.328125 -0.34375 -0.328125 -0.8125q0 -0.484375 0.328125 -0.8125q0.34375 -0.328125 0.8125 -0.328125q0.484375 0 0.8125 0.328125q0.34375 0.328125 0.34375 0.8125q0 0.46875 -0.34375 0.8125q-0.328125 0.328125 -0.8125 0.328125zm2.5917664 8.546875l0 -7.640625l2.0 0l0 0.640625q0.875 -0.78125 2.140625 -0.78125q0.890625 0 1.578125 0.390625q0.6875 0.390625 1.0625 1.078125q0.375 0.671875 0.375 1.578125l0 4.734375l-2.0 0l0 -4.4375q0 -0.75 -0.4375 -1.171875q-0.421875 -0.4375 -1.140625 -0.4375q-0.515625 0 -0.921875 0.203125q-0.390625 0.1875 -0.65625 0.546875l0 5.296875l-2.0 0zm12.222443 0.109375q-1.09375 0 -1.96875 -0.53125q-0.875 -0.53125 -1.40625 -1.40625q-0.515625 -0.890625 -0.515625 -2.0q0 -1.09375 0.515625 -1.984375q0.53125 -0.890625 1.421875 -1.40625q0.890625 -0.515625 2.0 -0.515625q0.578125 0 1.109375 0.15625q0.53125 0.140625 0.984375 0.4375l0 -3.125l2.0 -0.328125l0 10.59375l-1.96875 0l0 -0.625q-0.9375 0.734375 -2.171875 0.734375zm0.3125 -1.71875q0.5625 0 1.015625 -0.1875q0.46875 -0.1875 0.8125 -0.546875l0 -2.96875q-0.34375 -0.34375 -0.8125 -0.53125q-0.46875 -0.1875 -1.015625 -0.1875q-0.625 0 -1.140625 0.28125q-0.5 0.28125 -0.796875 0.796875q-0.28125 0.5 -0.28125 1.125q0 0.640625 0.28125 1.140625q0.296875 0.484375 0.796875 0.78125q0.515625 0.296875 1.140625 0.296875zm8.357498 1.75q-0.875 0 -1.5625 -0.375q-0.671875 -0.390625 -1.0625 -1.078125q-0.390625 -0.703125 -0.390625 -1.59375l0 -4.734375l2.0 0l0 4.453125q0 0.71875 0.4375 1.171875q0.4375 0.4375 1.171875 0.4375q0.5 0 0.890625 -0.203125q0.40625 -0.203125 0.671875 -0.5625l0 -5.296875l2.015625 0l0 7.640625l-2.015625 0l0 -0.609375q-0.875 0.75 -2.15625 0.75zm5.7380676 2.84375l0 -10.625l1.96875 0l0 0.640625q0.9375 -0.734375 2.171875 -0.734375q1.09375 0 1.96875 0.53125q0.875 0.515625 1.390625 1.40625q0.53125 0.890625 0.53125 1.984375q0 1.09375 -0.53125 1.984375q-0.53125 0.890625 -1.421875 1.421875q-0.890625 0.515625 -2.0 0.515625q-0.5625 0 -1.09375 -0.15625q-0.53125 -0.15625 -0.984375 -0.453125l0 3.484375l-2.0 0zm3.8125 -4.578125q0.640625 0 1.140625 -0.296875q0.515625 -0.296875 0.796875 -0.796875q0.296875 -0.5 0.296875 -1.125q0 -0.625 -0.296875 -1.125q-0.28125 -0.515625 -0.796875 -0.796875q-0.5 -0.296875 -1.140625 -0.296875q-0.546875 0 -1.015625 0.1875q-0.453125 0.1875 -0.796875 0.546875l0 2.984375q0.328125 0.328125 0.796875 0.53125q0.484375 0.1875 1.015625 0.1875z" fill-rule="nonzero"/><path fill="#ffffff" d="m64.955 18.226776l0 -0.96875l5.109375 0l0 0.96875l-5.109375 0zm11.702469 3.640625l-2.203125 -10.265625l1.140625 0l1.75 8.484375l2.53125 -8.484375l1.09375 0l2.546875 8.453125l1.75 -8.453125l1.09375 0l-2.203125 10.265625l-1.140625 0l-2.59375 -8.6875l-2.609375 8.6875l-1.15625 0zm13.923111 0.125q-1.0625 0 -1.921875 -0.5q-0.859375 -0.5 -1.359375 -1.359375q-0.5 -0.875 -0.5 -1.9375q0 -1.0625 0.46875 -1.921875q0.484375 -0.859375 1.296875 -1.359375q0.828125 -0.5 1.84375 -0.5q0.984375 0 1.765625 0.5q0.78125 0.5 1.25 1.359375q0.46875 0.859375 0.46875 1.921875l0 0.328125l-6.03125 0q0.09375 0.71875 0.453125 1.296875q0.375 0.5625 0.96875 0.890625q0.609375 0.328125 1.328125 0.328125q0.578125 0 1.109375 -0.171875q0.546875 -0.171875 0.921875 -0.5l0.671875 0.71875q-0.609375 0.453125 -1.28125 0.6875q-0.671875 0.21875 -1.453125 0.21875zm-2.6875 -4.328125l4.90625 0q-0.09375 -0.65625 -0.4375 -1.171875q-0.34375 -0.53125 -0.859375 -0.828125q-0.5 -0.296875 -1.125 -0.296875q-0.625 0 -1.15625 0.296875q-0.53125 0.28125 -0.890625 0.8125q-0.34375 0.515625 -0.4375 1.1875zm7.500534 4.203125l0 -10.265625l1.09375 -0.25l0 3.953125q0.9375 -0.890625 2.359375 -0.890625q1.03125 0 1.859375 0.5q0.84375 0.5 1.328125 1.359375q0.5 0.84375 0.5 1.921875q0 1.0625 -0.5 1.921875q-0.484375 0.859375 -1.328125 1.375q-0.828125 0.5 -1.875 0.5q-0.65625 0 -1.265625 -0.21875q-0.609375 -0.234375 -1.09375 -0.640625l0 0.734375l-1.078125 0zm3.34375 -0.828125q0.78125 0 1.390625 -0.375q0.609375 -0.375 0.96875 -1.015625q0.359375 -0.640625 0.359375 -1.453125q0 -0.796875 -0.359375 -1.4375q-0.359375 -0.65625 -0.96875 -1.015625q-0.609375 -0.375 -1.390625 -0.375q-0.6875 0 -1.28125 0.265625q-0.59375 0.265625 -0.96875 0.75l0 3.640625q0.375 0.46875 0.96875 0.75q0.609375 0.265625 1.28125 0.265625zm13.50145 0.984375q-1.125 0 -2.09375 -0.390625q-0.953125 -0.40625 -1.6875 -1.125q-0.734375 -0.734375 -1.140625 -1.6875q-0.40625 -0.96875 -0.40625 -2.078125q0 -1.125 0.40625 -2.078125q0.40625 -0.953125 1.140625 -1.671875q0.734375 -0.734375 1.6875 -1.140625q0.96875 -0.40625 2.09375 -0.40625q0.796875 0 1.53125 0.203125q0.75 0.1875 1.390625 0.5625q0.640625 0.375 1.140625 0.921875l-0.75 0.796875q-0.609375 -0.6875 -1.484375 -1.0625q-0.875 -0.375 -1.828125 -0.375q-0.890625 0 -1.65625 0.328125q-0.765625 0.3125 -1.328125 0.890625q-0.5625 0.578125 -0.890625 1.359375q-0.3125 0.765625 -0.3125 1.671875q0 0.890625 0.3125 1.671875q0.328125 0.765625 0.890625 1.34375q0.578125 0.578125 1.34375 0.90625q0.765625 0.328125 1.671875 0.328125q0.953125 0 1.8125 -0.375q0.859375 -0.375 1.453125 -1.03125l0.734375 0.75q-0.515625 0.53125 -1.15625 0.921875q-0.640625 0.375 -1.375 0.578125q-0.734375 0.1875 -1.5 0.1875zm8.736847 -0.015625q-1.046875 0 -1.90625 -0.5q-0.859375 -0.5 -1.359375 -1.359375q-0.484375 -0.875 -0.484375 -1.953125q0 -1.0625 0.484375 -1.921875q0.5 -0.875 1.359375 -1.375q0.859375 -0.5 1.90625 -0.5q1.046875 0 1.890625 0.5q0.859375 0.5 1.359375 1.375q0.5 0.859375 0.5 1.921875q0 1.078125 -0.5 1.953125q-0.5 0.859375 -1.359375 1.359375q-0.84375 0.5 -1.890625 0.5zm0 -0.96875q0.734375 0 1.34375 -0.375q0.609375 -0.375 0.96875 -1.015625q0.359375 -0.65625 0.359375 -1.453125q0 -0.796875 -0.359375 -1.4375q-0.359375 -0.640625 -0.96875 -1.015625q-0.609375 -0.375 -1.34375 -0.375q-0.75 0 -1.359375 0.375q-0.609375 0.375 -0.96875 1.015625q-0.359375 0.640625 -0.359375 1.4375q0 0.796875 0.359375 1.453125q0.359375 0.640625 0.96875 1.015625q0.609375 0.375 1.359375 0.375zm5.254654 0.828125l0 -7.34375l1.09375 0l0 0.859375q0.859375 -1.0 2.3125 -1.0q0.828125 0 1.46875 0.359375q0.640625 0.359375 1.0 1.0q0.359375 0.625 0.359375 1.484375l0 4.640625l-1.078125 0l0 -4.421875q0 -0.984375 -0.546875 -1.546875q-0.546875 -0.5625 -1.5 -0.5625q-0.65625 0 -1.171875 0.296875q-0.515625 0.28125 -0.84375 0.828125l0 5.40625l-1.09375 0zm10.39006 0.140625q-0.90625 0 -1.703125 -0.296875q-0.796875 -0.296875 -1.390625 -0.84375l0.65625 -0.703125q0.515625 0.46875 1.125 0.734375q0.625 0.25 1.265625 0.25q0.890625 0 1.4375 -0.359375q0.5625 -0.375 0.5625 -0.953125q0 -0.484375 -0.328125 -0.75q-0.328125 -0.28125 -1.03125 -0.390625l-1.28125 -0.171875q-1.09375 -0.15625 -1.640625 -0.65625q-0.53125 -0.5 -0.53125 -1.34375q0 -0.625 0.34375 -1.109375q0.359375 -0.484375 0.984375 -0.75q0.625 -0.28125 1.4375 -0.28125q0.796875 0 1.5 0.234375q0.703125 0.234375 1.375 0.734375l-0.5625 0.71875q-0.625 -0.421875 -1.203125 -0.609375q-0.578125 -0.203125 -1.171875 -0.203125q-0.765625 0 -1.234375 0.34375q-0.46875 0.328125 -0.46875 0.875q0 0.5 0.3125 0.765625q0.328125 0.25 1.046875 0.34375l1.28125 0.171875q1.09375 0.15625 1.640625 0.65625q0.5625 0.5 0.5625 1.359375q0 0.625 -0.40625 1.140625q-0.390625 0.515625 -1.0625 0.8125q-0.65625 0.28125 -1.515625 0.28125zm7.6881714 0q-1.046875 0 -1.90625 -0.5q-0.859375 -0.5 -1.359375 -1.359375q-0.484375 -0.875 -0.484375 -1.953125q0 -1.0625 0.484375 -1.921875q0.5 -0.875 1.359375 -1.375q0.859375 -0.5 1.90625 -0.5q1.046875 0 1.890625 0.5q0.859375 0.5 1.359375 1.375q0.5 0.859375 0.5 1.921875q0 1.078125 -0.5 1.953125q-0.5 0.859375 -1.359375 1.359375q-0.84375 0.5 -1.890625 0.5zm0 -0.96875q0.734375 0 1.34375 -0.375q0.609375 -0.375 0.96875 -1.015625q0.359375 -0.65625 0.359375 -1.453125q0 -0.796875 -0.359375 -1.4375q-0.359375 -0.640625 -0.96875 -1.015625q-0.609375 -0.375 -1.34375 -0.375q-0.75 0 -1.359375 0.375q-0.609375 0.375 -0.96875 1.015625q-0.359375 0.640625 -0.359375 1.4375q0 0.796875 0.359375 1.453125q0.359375 0.640625 0.96875 1.015625q0.609375 0.375 1.359375 0.375zm5.254654 0.828125l0 -10.265625l1.09375 -0.25l0 10.515625l-1.09375 0zm6.384384 0.125q-1.0625 0 -1.921875 -0.5q-0.859375 -0.5 -1.359375 -1.359375q-0.5 -0.875 -0.5 -1.9375q0 -1.0625 0.46875 -1.921875q0.484375 -0.859375 1.296875 -1.359375q0.828125 -0.5 1.84375 -0.5q0.984375 0 1.765625 0.5q0.78125 0.5 1.25 1.359375q0.46875 0.859375 0.46875 1.921875l0 0.328125l-6.03125 0q0.09375 0.71875 0.453125 1.296875q0.375 0.5625 0.96875 0.890625q0.609375 0.328125 1.328125 0.328125q0.578125 0 1.109375 -0.171875q0.546875 -0.171875 0.921875 -0.5l0.671875 0.71875q-0.609375 0.453125 -1.28125 0.6875q-0.671875 0.21875 -1.453125 0.21875zm-2.6875 -4.328125l4.90625 0q-0.09375 -0.65625 -0.4375 -1.171875q-0.34375 -0.53125 -0.859375 -0.828125q-0.5 -0.296875 -1.125 -0.296875q-0.625 0 -1.15625 0.296875q-0.53125 0.28125 -0.890625 0.8125q-0.34375 0.515625 -0.4375 1.1875z" fill-rule="nonzero"/></g></svg>